<?xml version="1.0" encoding="UTF-8"?>
<svg width="64px" height="64px" viewBox="0 0 64 64" version="1.1" xmlns="http://www.w3.org/2000/svg" xmlns:xlink="http://www.w3.org/1999/xlink">
    <!-- Generator: Sketch 55 (78076) - https://sketchapp.com -->
    <title>russian</title>
    <desc>Created with Sketch.</desc>
    <defs>
        <path d="M32,64 C46.0222222,64 53.8173667,64 58.9086889,58.9086889 C64,53.8173667 64,46.0222222 64,32 C64,17.9777778 64,10.1826333 58.9086889,5.09131111 C53.8173667,0 46.0222222,0 32,0 C17.9777778,0 10.1826333,0 5.09131111,5.09131111 C0,10.1826333 0,17.9777778 0,32 C0,46.0222222 0,53.8173667 5.09131111,58.9086889 C10.1826333,64 17.9777778,64 32,64 Z" id="path-1"></path>
        <path d="M13.3984375,37.65625 L25.1640625,23.578125 L15.0546875,23.578125 C14.3463506,23.578125 13.8125018,23.4218766 13.453125,23.109375 C13.0937482,22.7968734 12.9140625,22.3854192 12.9140625,21.875 C12.9140625,21.3437473 13.0937482,20.9140641 13.453125,20.5859375 C13.8125018,20.2578109 14.3463506,20.09375 15.0546875,20.09375 L28.0859375,20.09375 C29.7734459,20.09375 30.6171875,20.8802005 30.6171875,22.453125 C30.6171875,23.2031287 30.4765639,23.8020811 30.1953125,24.25 C29.9140611,24.6979189 29.3463584,25.42187 28.4921875,26.421875 L17.4921875,39.515625 L29.6171875,39.515625 C30.3359411,39.515625 30.8723941,39.664061 31.2265625,39.9609375 C31.5807309,40.257814 31.7578125,40.6718723 31.7578125,41.203125 C31.7578125,41.7552111 31.5807309,42.1927067 31.2265625,42.515625 C30.8723941,42.8385433 30.3359411,43 29.6171875,43 L14.7421875,43 C13.7317658,43 12.9713567,42.7734398 12.4609375,42.3203125 C11.9505183,41.8671852 11.6953125,41.2604205 11.6953125,40.5 C11.6953125,40.239582 11.7369788,40.0000011 11.8203125,39.78125 C11.9036462,39.5624989 12.0156243,39.3567718 12.15625,39.1640625 C12.2968757,38.9713532 12.4921862,38.726564 12.7421875,38.4296875 C12.9921888,38.132811 13.2109366,37.8750011 13.3984375,37.65625 Z M39.3515625,22.515625 L39.3515625,29.078125 L49.3671875,29.078125 L49.3671875,22.515625 C49.3671875,21.5781203 49.5781229,20.8750023 50,20.40625 C50.4218771,19.9374977 50.9765591,19.703125 51.6640625,19.703125 C52.3619827,19.703125 52.9270812,19.9348935 53.359375,20.3984375 C53.7916688,20.8619815 54.0078125,21.5677036 54.0078125,22.515625 L54.0078125,40.5625 C54.0078125,41.5104214 53.7890647,42.2187477 53.3515625,42.6875 C52.9140603,43.1562523 52.3515659,43.390625 51.6640625,43.390625 C50.9661423,43.390625 50.4088562,43.1536482 49.9921875,42.6796875 C49.5755188,42.2057268 49.3671875,41.5000047 49.3671875,40.5625 L49.3671875,32.859375 L39.3515625,32.859375 L39.3515625,40.5625 C39.3515625,41.5104214 39.1328147,42.2187477 38.6953125,42.6875 C38.2578103,43.1562523 37.6953159,43.390625 37.0078125,43.390625 C36.3098923,43.390625 35.7526062,43.1536482 35.3359375,42.6796875 C34.9192688,42.2057268 34.7109375,41.5000047 34.7109375,40.5625 L34.7109375,22.515625 C34.7109375,21.5781203 34.9166646,20.8750023 35.328125,20.40625 C35.7395854,19.9374977 36.2994756,19.703125 37.0078125,19.703125 C37.7057327,19.703125 38.2708312,19.9348935 38.703125,20.3984375 C39.1354188,20.8619815 39.3515625,21.5677036 39.3515625,22.515625 Z" id="path-3"></path>
    </defs>
    <g id="Page-1" stroke="none" stroke-width="1" fill="none" fill-rule="evenodd">
        <g id="std-icon">
            <g id="Path" fill="#8B73AE" fill-rule="nonzero">
                <path d="M32,64 C46.0222222,64 53.8173667,64 58.9086889,58.9086889 C64,53.8173667 64,46.0222222 64,32 C64,17.9777778 64,10.1826333 58.9086889,5.09131111 C53.8173667,0 46.0222222,0 32,0 C17.9777778,0 10.1826333,0 5.09131111,5.09131111 C0,10.1826333 0,17.9777778 0,32 C0,46.0222222 0,53.8173667 5.09131111,58.9086889 C10.1826333,64 17.9777778,64 32,64 Z" id="path-1"></path>
            </g>
            <g id="ZH-Clipped">
                <mask id="mask-2" fill="white">
                    <use xlink:href="#path-1"></use>
                </mask>
                <g id="path-1"></g>
                <g id="ZH" fill-rule="nonzero" mask="url(#mask-2)" fill="#FFFFFF">
                    <use xlink:href="#path-3"></use>
                    <use xlink:href="#path-3"></use>
                </g>
            </g>
        </g>
    </g>
</svg>

